<svg xmlns="http://www.w3.org/2000/svg" viewBox="0 0 460.086 460.086" xmlns:v="https://vecta.io/nano">
    <g fill="#000000">
        <path d="M163.642 198.966h130.32v29.28h-130.32v-29.28z" />
        <path d="M182.442 228.246h92.8v29.28h-92.8v-29.28z" />
        <circle cx="228.842" cy="71.126" r="63.12" />
        <path
            d="M141.882 371.526l17.04-14.16c32-26.88 37.12-73.36 37.68-92.08v-8h64v8c.56 18.72 5.44 65.2 37.68 92.08l17.04 14.16h-173.44zm34.72-172.56l12.24-13.44c10.769-12.851 17.282-28.729 18.64-45.44l.96-8.56 8.48 1.6a61.03 61.03 0 0 0 23.52 0l8.48-1.6.96 8.56a80.96 80.96 0 0 0 18.96 45.44l12.48 13.44h-104.72z" />
        <path d="M134.042 371.526h189.6v29.28h-189.6v-29.28z" />
        <path d="M121.002 400.806h215.76v51.36h-215.76v-51.36z" />
    </g>
    <path
        d="M336.682 392.806h-5.04v-21.28-.64c.065-.585.065-1.175 0-1.76-.243-.949-.709-1.827-1.36-2.56l-.72-.88c-.465-.404-.975-.753-1.52-1.04l-.96-.56c-49.36-17.92-56-77.2-57.2-98.48h6.08a8 8 0 0 0 8-8v-21.36h10.8a8 8 0 0 0 8-8v-29.28a8 8 0 0 0-8-8h-3.44c-25.84-10.16-32-40-32.96-54.8 35.914-15.906 52.134-57.914 36.228-93.828S236.676-9.796 200.762 6.11s-52.134 57.914-36.228 93.828c7.156 16.157 20.071 29.072 36.228 36.228-1.28 14.96-7.2 44.64-32.96 54.8h-3.44a8 8 0 0 0-8 8v29.28a8 8 0 0 0 8 8h10.08v21.28a8 8 0 0 0 8 8h6.4c-.88 21.2-8 80.48-57.2 98.48l-.96.56c-.545.287-1.055.636-1.52 1.04l-.72.88c-.651.733-1.117 1.611-1.36 2.56-.065.585-.065 1.175 0 1.76v.64 21.28h-5.04a8 8 0 0 0-8 8v51.36a8 8 0 0 0 8 8h216a8 8 0 0 0 8-8v-51.28c.064-4.418-3.465-8.051-7.883-8.116-.494-.007-.989.031-1.477.116zm-162.96-321.68c-.088-30.442 24.518-55.191 54.96-55.28s55.191 24.518 55.28 54.96-24.518 55.191-54.96 55.28h-.16c-30.361-.044-54.988-24.599-55.12-54.96zm41.92 69.84c8.744 1.711 17.736 1.711 26.48 0 1.578 18.382 8.817 35.823 20.72 49.92h-67.92a89.2 89.2 0 0 0 20.72-49.84v-.08zm-33.2 79.2h-10.8v-13.2h114.4v13.28h-103.6v-.08zm84.8 16v13.28h-76.8v-13.2l76.8-.08zm-62.4 29.36h48c.64 19.68 5.76 68.96 40.56 98h-129.44c34.8-29.04 40-78.32 40.88-98zm-62.8 114h173.6v13.28h-173.6v-13.28zm186.72 64.64h-200v-35.36h200v35.36z"
        fill="#35231a" />
</svg>
