<svg xmlns="http://www.w3.org/2000/svg" viewBox="0 0 483.12 483.12" xmlns:v="https://vecta.io/nano">
    <g fill="#000000">
        <path
            d="M185.04 181.84h113.28v28.96H185.04v-28.96zm16.64-28.88l-.96-7.44a215.99 215.99 0 0 0-22.24-70.88L167.76 52.8l41.04 21.52 20.08-27.28a21.52 21.52 0 0 1-8.96-17.52c.009-12.018 9.758-21.753 21.776-21.744 12.005.009 21.735 9.739 21.744 21.744a21.52 21.52 0 0 1-8.88 17.52l20.08 27.28 41.04-21.52-10.8 21.92c-11.415 22.145-18.912 46.099-22.16 70.8l-.64 7.28-80.4.16z" />
        <path
            d="M158 404.72l11.28-13.2c34.72-40.64 30.96-142.08 28.96-172.16l-.56-8.56h88l-.56 8.56c-2 30.08-5.68 131.52 28.96 172.16l11.28 13.2H158zm11.68-251.76h144.08v28.96H169.68v-28.96z" />
        <path d="M133.6,404.72h216.08v28.96H133.6V404.72z" />
        <path d="M117.92 433.68h247.6v41.6h-247.6v-41.6z" />
        <path d="M117.92 433.68h247.6v41.6h-247.6v-41.6z" />
    </g>
    <path
        d="M365.44 425.52h-8v-20.8a8 8 0 0 0-8-8h-16c-42.48-19.2-43.76-128.4-40.32-177.92h5.2a8 8 0 0 0 8-8v-20.96h7.36a8 8 0 0 0 8-8v-28.88a8 8 0 0 0-8-8H290.8c4.08-41.36 32.96-88 33.28-88.8a8 8 0 0 0-10.4-11.28l-36.56 19.2-11.92-16a29.28 29.28 0 0 0 6.32-18.32C271.52 13.324 258.196 0 241.76 0S212 13.324 212 29.76a29.28 29.28 0 0 0 6.32 18.32l-11.92 16-36.72-19.2a8 8 0 0 0-10.4 11.28c0 .48 29.2 47.44 33.28 88.8h-22.88a8 8 0 0 0-8 8v28.96a8 8 0 0 0 8 8h7.36v20.96a8 8 0 0 0 8 8h5.2c3.44 49.44 2.16 158.64-40.56 177.84h-16a8 8 0 0 0-8 8v20.8h-8a8 8 0 0 0-8 8v41.6a8 8 0 0 0 8 8h247.76a8 8 0 0 0 8-8v-41.6a8 8 0 0 0-8-8h0zM185.68 71.2l19.36 10.32a8 8 0 0 0 10.16-2.32l20.08-27.44a8 8 0 0 0-1.6-11.2h0A13.6 13.6 0 0 1 228 29.52c0-7.599 6.161-13.76 13.76-13.76s13.76 6.161 13.76 13.76a13.6 13.6 0 0 1-5.84 11.04c-3.556 2.623-4.312 7.631-1.69 11.187l20.09 27.293a8 8 0 0 0 10.16 2.32l19.44-10.16a223.11 223.11 0 0 0-22.96 73.68h-66.08a223.11 223.11 0 0 0-22.96-73.68h0zm-.64 102.64h-7.36v-12.88h128v12.96H185.04v-.08zm105.28 16v12.96h-97.28v-12.96h97.28zm-84.08 28.96h70.88c-2 31.12-5.76 134.88 30.88 177.84H175.36c36.64-43.12 32.96-146.72 30.88-177.84zM141.6 412.72h200v12.8h-200v-12.8zm216 54.56H125.92v-25.76h231.52l.16 25.76z"
        fill="#35231a" />
</svg>
