<svg xmlns="http://www.w3.org/2000/svg" viewBox="0 0 470.162 470.162" xmlns:v="https://vecta.io/nano">
    <g fill="#000000">
        <path d="M181.441 134.882h107.44v29.2h-107.44v-29.2z" />
        <path
            d="M126.481 381.442l13.92-13.68c52-51.04 56-162.72 56.48-195.68v-8h76.32v8c0 33.04 4.48 144.64 56.48 195.68l13.92 13.68h-217.12zm38.96-275.76h139.36v29.2h-139.36v-29.2z" />
        <path
            d="M152.401 105.682l-21.6-97.68h44.96l8.88 38.48h29.36V8.002h42.24v38.48h29.36l8.88-38.48h44.96l-21.6 97.68h-165.44zm-59.2 304.96h283.92v51.2H93.201v-51.2z" />
        <path d="M107.601 381.442h254.96v29.2h-254.96v-29.2z" />
    </g>
    <path
        d="M377.041 402.962h-6.48v-21.52a8 8 0 0 0-8-8h-12.64c-63.04-39.12-68.32-168-68.56-201.36h7.44a8 8 0 0 0 8-8v-21.2h8a8 8 0 0 0 8-8v-21.2h5.04a8 8 0 0 0 8-6.24l21.28-97.68A8 8 0 0 0 341.08.196a8.01 8.01 0 0 0-1.959-.194h-44.64a8 8 0 0 0-8 6.24l-7.44 32h-14.8V8.002a8 8 0 0 0-8-8h-42.24a8 8 0 0 0-8 8v30.4h-15.04l-7.44-32a8 8 0 0 0-8-6.24h-44.4a8 8 0 0 0-8.194 7.801 8.02 8.02 0 0 0 .194 1.959l21.68 97.68a8 8 0 0 0 8 6.24h5.04v21.2a8 8 0 0 0 8 8h8v21.2a8 8 0 0 0 8 8h7.44c0 33.12-5.52 162.24-68.56 201.36h-13.12a8 8 0 0 0-8 8v21.36h-6.48a8 8 0 0 0-8 8v51.2a8 8 0 0 0 8 8h283.92a8 8 0 0 0 8-8v-51.2a8 8 0 0 0-8-8zm-211.6-305.28h-6.64l-18.08-81.68h28.64l7.44 32a8 8 0 0 0 8 6.16h29.44a8 8 0 0 0 8-8v-30.16h26.16v30.4a8 8 0 0 0 8 8h29.44a8 8 0 0 0 8-6.16l7.44-32h28.24l-18.16 81.44h-145.92zm16 29.2h-8v-13.2h123.36v13.2h-115.36zm99.44 16v13.2h-91.44v-13.2h91.44zm-75.92 29.2h60.4c0 32 4.4 147.84 58.88 201.36h-178.16c54.4-53.44 58.72-169.12 58.88-201.36h0zm-89.36 217.36h239.04v13.52h-239.04v-13.52zm253.44 64.4h-267.84v-34.88h267.84v34.88z"
        fill="#35231a" />
</svg>
