<svg xmlns="http://www.w3.org/2000/svg" viewBox="0 0 456.022 456.022" xmlns:v="https://vecta.io/nano">
    <g fill="#000000">
        <path
            d="M373.364 57.462c-29.712-31.392-70.861-49.427-114.08-50a171.99 171.99 0 0 0-52.16 8.48l-16 5.2 12.88 8c-4.909-2.664-10.289-4.348-15.84-4.96h-2.24l-2.08.96a281.84 281.84 0 0 0-48 28.16c-4.24 3.04-8.4 6.32-13.2 10.4l-15.52 13.2 20.4.88h.96-5.68a114.52 114.52 0 0 0-12.88.72h-2.96l-2 2.24c-15.066 16.651-26.532 36.233-33.68 57.52l-4.72 14 11.76-3.04c-4.309 1.309-8.162 3.804-11.12 7.2l-1.2 1.52v1.92a201.46 201.46 0 0 0-1.6 63.52l2 16 10.96-11.6.8-.72c-3.589 3.418-6.782 7.229-9.52 11.36l-1.84 2.8.72 3.28a253.42 253.42 0 0 0 17.52 52.64l.88 1.92 44.48 31.2-4.8-20.48a203.84 203.84 0 0 1 3.84-96.88c32-124.48 150.48-156.64 152-156.96l46.96 38.48 51.76-29.52-6.8-7.44zm-272.08 350.4h260.96v39.84h-260.96v-39.84z" />
        <path d="M125.284 368.022h212.88v39.84h-212.88v-39.84z" />
        <path
            d="M265.044 186.582l38.48 13.84 4.24 41.52 54.48 24.56 32-53.36-2.56-4.16c-25.92-41.84-56-93.28-62.96-112l-.72-2.08-47.04-38.8-4.16 1.36c-19.6 6.24-118.8 43.28-147.44 155.76-25.2 98.88 17.52 144.56 26.32 152.72l2.32 2.16h155.2l2.32-3.84c6.56-10.8 20.48-38 7.12-58.08-11.6-17.52-66.32-95.36-82.8-118.72l-.48-.72 18-41.6 7.68 41.44z" />
    </g>
    <path
        d="M337.924 98.182l46-26.16a8 8 0 0 0 3.021-10.903 7.92 7.92 0 0 0-.621-.937c-49.902-58.803-133.066-76.781-202.8-43.84l-1.36.64a282.46 282.46 0 0 0-51.04 29.52c-80.96 58.32-83.28 139.44-72 194.8-.056 1.327.219 2.646.8 3.84a256.01 256.01 0 0 0 19.36 57.92 8 8 0 0 0 2.48 2.88l45.12 32a117.84 117.84 0 0 0 13.28 22.08h-14.88a8 8 0 0 0-8 8v32h-16a8 8 0 0 0-8 8v40a8 8 0 0 0 8 8h260.96a8 8 0 0 0 8-8v-40a8 8 0 0 0-8-8h-16v-32a8 8 0 0 0-8-8h-11.2c7.28-14.48 15.36-38.64 2.32-58.32-11.84-17.92-67.92-97.92-80.88-116l5.76-13.28 2.88 16a8 8 0 0 0 5.12 6.08l33.68 12.16 4.24 36.16a8 8 0 0 0 4.64 6.48l54.48 24.56c.592.233 1.21.394 1.84.48h.88a7.98 7.98 0 0 0 2.4 0c.935-.318 1.803-.806 2.56-1.44.291-.299.559-.62.8-.96.354-.343.675-.718.96-1.12l32-53.36a8 8 0 0 0 0-8c-14.56-24.32-52.16-86.24-62.8-111.28h0zm-216 113.04a209.91 209.91 0 0 0-3.84 100.64l-25.92-17.92a245.08 245.08 0 0 1-16.88-50.88c3.92-5.92 12.24-16 21.28-17.04 4.418-.508 7.588-4.502 7.08-8.92s-4.502-7.588-8.92-7.08c-8.783 1.415-16.854 5.689-22.96 12.16a193.82 193.82 0 0 1 1.52-60.96c.56-.72 8-9.36 29.2-4.8 4.418.928 8.752-1.902 9.68-6.32s-1.902-8.752-6.32-9.68c-8.94-2.147-18.26-2.147-27.2 0a154.56 154.56 0 0 1 32-54.72 83.92 83.92 0 0 1 38.72 3.84c1.011.431 2.101.649 3.2.64a8 8 0 0 0 8.065-7.934c.026-3.23-1.893-6.16-4.865-7.426-8.937-3.595-18.45-5.546-28.08-5.76 4-3.44 8-6.8 12.72-10 14.625-10.651 30.275-19.816 46.72-27.36a29.2 29.2 0 0 1 20.8 12.08c2.364 3.733 7.307 4.844 11.04 2.48s4.844-7.307 2.48-11.04c-3.051-4.778-7.121-8.822-11.92-11.84 55.869-19.078 117.733-3.573 158 39.6l-38.72 22-42.72-34.96a8 8 0 0 0-7.04-1.6c-1.2.32-124.32 32.88-157.36 162.8h.24zm232.32 204.64v24h-244.96v-24h244.96zm-24-40v24h-196.96v-24h196.88.08zm33.92-128.72l-8.88-28.56a8.01 8.01 0 0 0-10.04-5.24 8.01 8.01 0 0 0-5.24 10.04l9.28 28.4-34.08-15.2-3.84-36.96a8 8 0 0 0-5.28-6.72l-34.16-12.32-6.8-37.04c-.797-4.346-4.965-7.223-9.311-6.427a8 8 0 0 0-5.889 4.667l-18 41.6a8 8 0 0 0 .8 8c.72.96 70.16 99.6 83.2 119.28 10.88 16.48-1.92 40.72-7.28 49.52h-147.44c-9.12-8.48-48-50.96-24-144.88 27.52-108 122-144 142.08-150.08l41.92 34.32c9.04 25.04 52.4 96 64 113.92l-21.04 33.68z"
        fill="#35231a" />
</svg>
