<svg width="100" height="100" xmlns="http://www.w3.org/2000/svg" viewBox="0 0 480.243 480.243"
    xmlns:v="https://vecta.io/nano">
    <g fill="#000000">
        <path d="M175.522 183.123h129.2v25.92h-129.2v-25.92zm13.76 26h101.6v25.92h-101.6v-25.92z" />
        <path
            d="M209.282 183.123l-.64-6.88a90.96 90.96 0 0 0-26.32-56.88l-4.48-4.4 3.2-5.36a68.48 68.48 0 0 1 45.36-32.56l1.92-23.2c-4.8 0-9.04.88-12.48 1.44l-9.12.96v-29.12l9.36 1.44c3.44.56 8 1.04 12.56 1.44 0-4.24-.8-8.4-1.44-12.4l-1.6-9.36h29.04l-1.52 9.28a139.51 139.51 0 0 0-1.44 12.56c4.4 0 8.56-.72 12.56-1.44l9.28-1.52v29.12l-9.44-1.52c-4-.64-8-1.12-12.4-1.44l1.92 23.28a68.48 68.48 0 0 1 45.36 32.56l3.2 5.36-4.48 4.4c-15.285 15.386-24.564 35.731-26.16 57.36l-.64 7.28-61.6-.4zm-43.6 225.761l10.4-13.04c30.16-37.04 26.72-125.92 24.88-152l-.56-8.56h78.8l-.56 8.56c-1.76 26.32-5.28 115.2 24.88 152l10.64 13.04h-148.48z" />
        <path d="M143.202 408.884h193.76v25.92h-193.76v-25.92zm-14.08 26h222v37.28h-222v-37.28z" />
    </g>
    <path
        d="M351.122 426.884h-6.08v-18a8 8 0 0 0-8-8h-14.32c-37.52-16.64-38.88-113.28-35.76-157.84h3.92a8 8 0 0 0 8-8v-17.92h5.76a8 8 0 0 0 8-8v-26a8 8 0 0 0-8-8h-25.04a81.6 81.6 0 0 1 27.44-53.68 8 8 0 0 0 2.56-9.2 77.76 77.76 0 0 0-48-41.84l-.64-8c3.713.503 7.398 1.198 11.04 2.08 4.289 1.062 8.626-1.553 9.689-5.842.175-.706.253-1.432.231-2.158v-29.68a8 8 0 0 0-9.92-8c-3.615.882-7.273 1.576-10.96 2.08.504-3.687 1.198-7.345 2.08-10.96 1.062-4.289-1.553-8.626-5.842-9.689-.706-.175-1.432-.253-2.158-.231h-29.92a8 8 0 0 0-8.231 7.762 8 8 0 0 0 .231 2.158c.871 3.536 1.565 7.114 2.08 10.72-6.72-.88-10.88-1.92-10.88-1.92-4.289-1.062-8.626 1.553-9.689 5.842-.175.706-.253 1.432-.231 2.158v29.52a8 8 0 0 0 9.92 8s4.24-1.04 11.04-1.92l-.64 8a77.76 77.76 0 0 0-48 41.84 8 8 0 0 0 2.56 9.36c15.599 13.785 25.402 32.963 27.44 53.68h-25.28a8 8 0 0 0-8 8v25.92a8 8 0 0 0 8 8h5.76v17.92a8 8 0 0 0 8 8h3.92c3.12 44.56 1.76 141.04-35.76 157.84h-14.24a8 8 0 0 0-8 8v18h-6.08a8 8 0 0 0-8 8v37.36a8 8 0 0 0 8 8h222a8 8 0 0 0 8-8v-37.36a8 8 0 0 0-8-8h0zm-163.2-313.601c8.661-14.84 23.189-25.329 40-28.88a8 8 0 0 0 6.4-7.12l1.92-23.2a8 8 0 0 0-7.398-8.56 8.05 8.05 0 0 0-1.162 0c-5.04 0-9.44.96-13.04 1.52v-10.56c3.6.56 8 1.12 13.2 1.52a8 8 0 0 0 8.56-7.398 8.05 8.05 0 0 0 0-1.162c0-4.48-.8-8.88-1.52-13.12h10.24c-.72 4.24-1.2 8.64-1.52 13.28a8 8 0 0 0 7.489 8.48 8.19 8.19 0 0 0 .991 0c4.64 0 9.04-.8 13.28-1.52v10.24c-4.24-.64-8.64-1.2-13.12-1.52a8 8 0 0 0-8.56 8.56l1.92 23.36a8 8 0 0 0 6.4 7.2c16.811 3.551 31.339 14.04 40 28.88-16.556 16.589-26.727 38.488-28.72 61.84h-46.64c-1.993-23.352-12.164-45.251-28.72-61.84h0zm1.36 88h-5.76v-10.16h113.12v9.92h-107.36v.24zm93.6 16v9.92h-85.6v-10.08l85.6.16zm-73.68 25.921h61.68c-2.08 30.16-5.04 118.88 26.72 157.84h-115.04c31.68-39.12 28.72-127.84 26.64-158v.16zm-58 173.68h177.76v9.92h-177.76v-9.92zm192 47.28h-206.08v-21.28h206l.08 21.28z"
        fill="#35231a" />
</svg>
