<svg width="100" height="100" xmlns="http://www.w3.org/2000/svg" viewBox="0 0 412.124 412.124"
    xmlns:v="https://vecta.io/nano">
    <g fill="#000000">
        <circle cx="206.06" cy="68.684" r="60.64" />
        <path
            d="M110.06 309.004l17.92-14.24c36.88-29.36 42.16-81.44 42.72-102.48v-8h70.08v8c.56 21.04 5.84 73.12 42.72 102.48l18.56 14.24h-192zm13.36-179.68h165.36v27.6H123.42v-27.6z" />
        <path d="M146.54 156.924h119.04v27.6H146.54v-27.6zm-70.48 191.76h260.08v55.2H76.06v-55.2z" />
        <path d="M102.46 309.004h207.2v39.68h-207.2v-39.68z" />
    </g>
    <path
        d="M336.06 340.684h-18.4v-32-.64c-.117-.995-.387-1.967-.8-2.88-.267-.513-.589-.996-.96-1.44l-.72-.88c-.465-.404-.975-.753-1.52-1.04l-1.12.16c-54.96-20-62.16-86.4-62.96-108.96h16a8 8 0 0 0 8-8v-20.08h15.2a8 8 0 0 0 8-8v-27.6a8 8 0 0 0-8-8h-38.72c29.096-24.301 32.983-67.587 8.683-96.683s-67.587-32.983-96.683-8.683-32.983 67.587-8.683 96.683a68.62 68.62 0 0 0 8.683 8.683h-38.64a8 8 0 0 0-8 8v27.6a8 8 0 0 0 8 8h15.12v19.6a8 8 0 0 0 8 8h16c-.8 22.64-8 89.04-62.96 108.96l-.96.56c-.545.287-1.055.636-1.52 1.04l-.72.88c-.371.444-.693.927-.96 1.44-.413.913-.683 1.885-.8 2.88v.64 32H76.06a8 8 0 0 0-8 8v55.2a8 8 0 0 0 8 8h260a8 8 0 0 0 8-8v-55.2a8 8 0 0 0-7.756-8.236 6.58 6.58 0 0 0-.244-.004h0zm-182.64-272c0-29.072 23.568-52.64 52.64-52.64s52.64 23.568 52.64 52.64-23.568 52.64-52.64 52.64c-29.054-.044-52.596-23.586-52.64-52.64zm-22 80v-11.36H280.7v11.6H131.42v-.24zm23.12 27.6v-11.36h103.04v11.6H154.54v-.24zm24 16h54.48c.56 21.2 6 76.88 45.68 108.56H133.1c39.76-31.52 45.12-86.88 45.68-108.32l-.24-.24zm-68.08 124.72h191.2v24h-191.2v-24zm217.6 78.88h-244v-39.2h244v39.2z"
        fill="#35231a" />
</svg>
