<svg xmlns="http://www.w3.org/2000/svg" viewBox="0 0 800 800" xmlns:v="https://vecta.io/nano">
    <path fill="#303030" d="M0 0h800v800H0z" />
    <path
        d="M0 0h100v100H0zm200 0h100v100H200zm200 0h100v100H400zm200 0h100v100H600zM100 100h100v100H100zm200 0h100v100H300zm200 0h100v100H500zm200 0h100v100H700zM0 200h100v100H0zm200 0h100v100H200zm200 0h100v100H400zm200 0h100v100H600zM100 300h100v100H100zm200 0h100v100H300zm200 0h100v100H500zm200 0h100v100H700zM0 400h100v100H0zm200 0h100v100H200zm200 0h100v100H400zm200 0h100v100H600zM100 500h100v100H100zm200 0h100v100H300zm200 0h100v100H500zm200 0h100v100H700zM0 600h100v100H0zm200 0h100v100H200zm200 0h100v100H400zm200 0h100v100H600zM100 700h100v100H100zm200 0h100v100H300zm200 0h100v100H500zm200 0h100v100H700z"
        fill="#f5f5f5" />
</svg>
